<mxfile host="app.diagrams.net" modified="2021-02-18T08:29:34.754Z" agent="5.0 (X11; Linux x86_64) AppleWebKit/537.36 (KHTML, like Gecko) Chrome/88.0.4324.182 Safari/537.36" etag="rsFIirdlkd2cOFqkpK3d" version="14.4.0" type="github">
  <diagram id="C5RBs43oDa-KdzZeNtuy" name="Page-1">
    <mxGraphModel dx="868" dy="430" grid="1" gridSize="10" guides="1" tooltips="1" connect="1" arrows="1" fold="1" page="1" pageScale="1" pageWidth="827" pageHeight="1169" background="#114B5F" math="0" shadow="0">
      <root>
        <mxCell id="WIyWlLk6GJQsqaUBKTNV-0" />
        <mxCell id="WIyWlLk6GJQsqaUBKTNV-1" parent="WIyWlLk6GJQsqaUBKTNV-0" />
        <mxCell id="ezc78jZlAz5yiL0lm-c--5" style="edgeStyle=orthogonalEdgeStyle;curved=0;rounded=1;sketch=0;orthogonalLoop=1;jettySize=auto;html=1;exitX=0.5;exitY=1;exitDx=0;exitDy=0;strokeColor=#028090;fillColor=#F45B69;fontColor=#E4FDE1;labelBackgroundColor=#114B5F;" edge="1" parent="WIyWlLk6GJQsqaUBKTNV-1" source="ezc78jZlAz5yiL0lm-c--0" target="ezc78jZlAz5yiL0lm-c--4">
          <mxGeometry relative="1" as="geometry" />
        </mxCell>
        <mxCell id="ezc78jZlAz5yiL0lm-c--0" value="&lt;meta charset=&quot;utf-8&quot;&gt;&lt;div class=&quot;OutlineElement Ltr SCXW37892440 BCX0&quot; style=&quot;margin: 0px; padding: 0px; overflow: visible; cursor: text; clear: both; position: relative; direction: ltr; color: rgb(0, 0, 0); font-family: &amp;quot;segoe ui&amp;quot;, &amp;quot;segoe ui web&amp;quot;, arial, verdana, sans-serif; font-size: 12px; font-style: normal; font-weight: 400; letter-spacing: normal; text-indent: 0px; text-transform: none; word-spacing: 0px; background-color: rgb(255, 255, 255);&quot;&gt;&lt;p class=&quot;Paragraph SCXW37892440 BCX0&quot; lang=&quot;RU-RU&quot; style=&quot;margin: 0px ; padding: 0px ; overflow-wrap: break-word ; font-weight: normal ; font-style: normal ; vertical-align: baseline ; background-color: transparent ; text-align: left ; text-indent: 0px&quot;&gt;&lt;span lang=&quot;RU-RU&quot; class=&quot;TextRun SCXW37892440 BCX0&quot; style=&quot;margin: 0px ; padding: 0px ; font-size: 11pt ; line-height: 19.425px ; font-family: &amp;quot;calibri&amp;quot; , &amp;quot;calibri_embeddedfont&amp;quot; , &amp;quot;calibri_msfontservice&amp;quot; , sans-serif&quot;&gt;&lt;span class=&quot;NormalTextRun SCXW37892440 BCX0&quot; style=&quot;margin: 0px ; padding: 0px ; background-color: inherit&quot;&gt;x =&lt;span&gt;&amp;nbsp;&lt;/span&gt;&lt;/span&gt;&lt;span class=&quot;SpellingError SCXW37892440 BCX0&quot; style=&quot;margin: 0px ; padding: 0px ; background-repeat: repeat-x ; background-position: left bottom ; background-image: url(&amp;quot;data:image/gif;base64,R0lGODlhBQAEAJECAP////8AAAAAAAAAACH5BAEAAAIALAAAAAAFAAQAAAIIlGAXCCHrTCgAOw==&amp;quot;) ; border-bottom: 1px solid transparent ; background-color: inherit&quot;&gt;float&lt;/span&gt;&lt;span class=&quot;NormalTextRun SCXW37892440 BCX0&quot; style=&quot;margin: 0px ; padding: 0px ; background-color: inherit&quot;&gt;(&lt;/span&gt;&lt;span class=&quot;SpellingError SCXW37892440 BCX0&quot; style=&quot;margin: 0px ; padding: 0px ; background-repeat: repeat-x ; background-position: left bottom ; background-image: url(&amp;quot;data:image/gif;base64,R0lGODlhBQAEAJECAP////8AAAAAAAAAACH5BAEAAAIALAAAAAAFAAQAAAIIlGAXCCHrTCgAOw==&amp;quot;) ; border-bottom: 1px solid transparent ; background-color: inherit&quot;&gt;input&lt;/span&gt;&lt;span class=&quot;NormalTextRun SCXW37892440 BCX0&quot; style=&quot;margin: 0px ; padding: 0px ; background-color: inherit&quot;&gt;(&quot;x = &quot;))&lt;/span&gt;&lt;/span&gt;&lt;span class=&quot;EOP SCXW37892440 BCX0&quot; style=&quot;margin: 0px ; padding: 0px ; font-size: 11pt ; line-height: 19.425px ; font-family: &amp;quot;calibri&amp;quot; , &amp;quot;calibri_embeddedfont&amp;quot; , &amp;quot;calibri_msfontservice&amp;quot; , sans-serif&quot;&gt;&amp;nbsp;&lt;/span&gt;&lt;/p&gt;&lt;/div&gt;&lt;div class=&quot;OutlineElement Ltr  BCX0 SCXW37892440&quot; style=&quot;margin: 0px; padding: 0px; overflow: visible; cursor: text; clear: both; position: relative; direction: ltr; color: rgb(0, 0, 0); font-family: &amp;quot;segoe ui&amp;quot;, &amp;quot;segoe ui web&amp;quot;, arial, verdana, sans-serif; font-size: 12px; font-style: normal; font-weight: 400; letter-spacing: normal; text-indent: 0px; text-transform: none; word-spacing: 0px; background-color: rgb(255, 255, 255);&quot;&gt;&lt;p class=&quot;Paragraph SCXW37892440 BCX0&quot; lang=&quot;RU-RU&quot; style=&quot;margin: 0px ; padding: 0px ; overflow-wrap: break-word ; font-weight: normal ; font-style: normal ; vertical-align: baseline ; background-color: transparent ; text-align: left ; text-indent: 0px&quot;&gt;&lt;span lang=&quot;RU-RU&quot; class=&quot;TextRun SCXW37892440 BCX0&quot; style=&quot;margin: 0px ; padding: 0px ; font-size: 11pt ; line-height: 19.425px ; font-family: &amp;quot;calibri&amp;quot; , &amp;quot;calibri_embeddedfont&amp;quot; , &amp;quot;calibri_msfontservice&amp;quot; , sans-serif&quot;&gt;&lt;span class=&quot;NormalTextRun SCXW37892440 BCX0&quot; style=&quot;margin: 0px ; padding: 0px ; background-color: inherit&quot;&gt;c =&lt;span&gt;&amp;nbsp;&lt;/span&gt;&lt;/span&gt;&lt;span class=&quot;SpellingError SCXW37892440 BCX0&quot; style=&quot;margin: 0px ; padding: 0px ; background-repeat: repeat-x ; background-position: left bottom ; background-image: url(&amp;quot;data:image/gif;base64,R0lGODlhBQAEAJECAP////8AAAAAAAAAACH5BAEAAAIALAAAAAAFAAQAAAIIlGAXCCHrTCgAOw==&amp;quot;) ; border-bottom: 1px solid transparent ; background-color: inherit&quot;&gt;float&lt;/span&gt;&lt;span class=&quot;NormalTextRun SCXW37892440 BCX0&quot; style=&quot;margin: 0px ; padding: 0px ; background-color: inherit&quot;&gt;(&lt;/span&gt;&lt;span class=&quot;SpellingError SCXW37892440 BCX0&quot; style=&quot;margin: 0px ; padding: 0px ; background-repeat: repeat-x ; background-position: left bottom ; background-image: url(&amp;quot;data:image/gif;base64,R0lGODlhBQAEAJECAP////8AAAAAAAAAACH5BAEAAAIALAAAAAAFAAQAAAIIlGAXCCHrTCgAOw==&amp;quot;) ; border-bottom: 1px solid transparent ; background-color: inherit&quot;&gt;input&lt;/span&gt;&lt;span class=&quot;NormalTextRun SCXW37892440 BCX0&quot; style=&quot;margin: 0px ; padding: 0px ; background-color: inherit&quot;&gt;(&quot;c = &quot;))&lt;/span&gt;&lt;/span&gt;&lt;span class=&quot;EOP SCXW37892440 BCX0&quot; style=&quot;margin: 0px ; padding: 0px ; font-size: 11pt ; line-height: 19.425px ; font-family: &amp;quot;calibri&amp;quot; , &amp;quot;calibri_embeddedfont&amp;quot; , &amp;quot;calibri_msfontservice&amp;quot; , sans-serif&quot;&gt;&amp;nbsp;&lt;/span&gt;&lt;/p&gt;&lt;/div&gt;&lt;div class=&quot;OutlineElement Ltr  BCX0 SCXW37892440&quot; style=&quot;margin: 0px; padding: 0px; overflow: visible; cursor: text; clear: both; position: relative; direction: ltr; color: rgb(0, 0, 0); font-family: &amp;quot;segoe ui&amp;quot;, &amp;quot;segoe ui web&amp;quot;, arial, verdana, sans-serif; font-size: 12px; font-style: normal; font-weight: 400; letter-spacing: normal; text-indent: 0px; text-transform: none; word-spacing: 0px; background-color: rgb(255, 255, 255);&quot;&gt;&lt;p class=&quot;Paragraph SCXW37892440 BCX0&quot; lang=&quot;RU-RU&quot; style=&quot;margin: 0px ; padding: 0px ; overflow-wrap: break-word ; font-weight: normal ; font-style: normal ; vertical-align: baseline ; background-color: transparent ; text-align: left ; text-indent: 0px&quot;&gt;&lt;span lang=&quot;RU-RU&quot; class=&quot;TextRun SCXW37892440 BCX0&quot; style=&quot;margin: 0px ; padding: 0px ; font-size: 11pt ; line-height: 19.425px ; font-family: &amp;quot;calibri&amp;quot; , &amp;quot;calibri_embeddedfont&amp;quot; , &amp;quot;calibri_msfontservice&amp;quot; , sans-serif&quot;&gt;&lt;span class=&quot;NormalTextRun SCXW37892440 BCX0&quot; style=&quot;margin: 0px ; padding: 0px ; background-color: inherit&quot;&gt;a =&lt;span&gt;&amp;nbsp;&lt;/span&gt;&lt;/span&gt;&lt;/span&gt;&lt;span lang=&quot;RU-RU&quot; class=&quot;TextRun SCXW37892440 BCX0&quot; style=&quot;margin: 0px ; padding: 0px ; font-size: 11pt ; line-height: 19.425px ; font-family: &amp;quot;calibri&amp;quot; , &amp;quot;calibri_embeddedfont&amp;quot; , &amp;quot;calibri_msfontservice&amp;quot; , sans-serif&quot;&gt;&lt;span class=&quot;SpellingError SCXW37892440 BCX0&quot; style=&quot;margin: 0px ; padding: 0px ; background-repeat: repeat-x ; background-position: left bottom ; background-image: url(&amp;quot;data:image/gif;base64,R0lGODlhBQAEAJECAP////8AAAAAAAAAACH5BAEAAAIALAAAAAAFAAQAAAIIlGAXCCHrTCgAOw==&amp;quot;) ; border-bottom: 1px solid transparent ; background-color: inherit&quot;&gt;float&lt;/span&gt;&lt;/span&gt;&lt;span lang=&quot;RU-RU&quot; class=&quot;TextRun SCXW37892440 BCX0&quot; style=&quot;margin: 0px ; padding: 0px ; font-size: 11pt ; line-height: 19.425px ; font-family: &amp;quot;calibri&amp;quot; , &amp;quot;calibri_embeddedfont&amp;quot; , &amp;quot;calibri_msfontservice&amp;quot; , sans-serif&quot;&gt;&lt;span class=&quot;NormalTextRun SCXW37892440 BCX0&quot; style=&quot;margin: 0px ; padding: 0px ; background-color: inherit&quot;&gt;(&lt;/span&gt;&lt;/span&gt;&lt;span lang=&quot;RU-RU&quot; class=&quot;TextRun SCXW37892440 BCX0&quot; style=&quot;margin: 0px ; padding: 0px ; font-size: 11pt ; line-height: 19.425px ; font-family: &amp;quot;calibri&amp;quot; , &amp;quot;calibri_embeddedfont&amp;quot; , &amp;quot;calibri_msfontservice&amp;quot; , sans-serif&quot;&gt;&lt;span class=&quot;SpellingError SCXW37892440 BCX0&quot; style=&quot;margin: 0px ; padding: 0px ; background-repeat: repeat-x ; background-position: left bottom ; background-image: url(&amp;quot;data:image/gif;base64,R0lGODlhBQAEAJECAP////8AAAAAAAAAACH5BAEAAAIALAAAAAAFAAQAAAIIlGAXCCHrTCgAOw==&amp;quot;) ; border-bottom: 1px solid transparent ; background-color: inherit&quot;&gt;input&lt;/span&gt;&lt;/span&gt;&lt;span lang=&quot;RU-RU&quot; class=&quot;TextRun SCXW37892440 BCX0&quot; style=&quot;margin: 0px ; padding: 0px ; font-size: 11pt ; line-height: 19.425px ; font-family: &amp;quot;calibri&amp;quot; , &amp;quot;calibri_embeddedfont&amp;quot; , &amp;quot;calibri_msfontservice&amp;quot; , sans-serif&quot;&gt;&lt;span class=&quot;NormalTextRun SCXW37892440 BCX0&quot; style=&quot;margin: 0px ; padding: 0px ; background-color: inherit&quot;&gt;(&quot;a = &quot;))&lt;/span&gt;&lt;/span&gt;&lt;span class=&quot;EOP SCXW37892440 BCX0&quot; style=&quot;margin: 0px ; padding: 0px ; font-size: 11pt ; line-height: 19.425px ; font-family: &amp;quot;calibri&amp;quot; , &amp;quot;calibri_embeddedfont&amp;quot; , &amp;quot;calibri_msfontservice&amp;quot; , sans-serif&quot;&gt;&amp;nbsp;&lt;/span&gt;&lt;/p&gt;&lt;/div&gt;" style="shape=parallelogram;perimeter=parallelogramPerimeter;whiteSpace=wrap;html=1;fixedSize=1;fillColor=#F45B69;strokeColor=#028090;fontColor=#E4FDE1;" vertex="1" parent="WIyWlLk6GJQsqaUBKTNV-1">
          <mxGeometry x="210" y="150" width="180" height="70" as="geometry" />
        </mxCell>
        <mxCell id="ezc78jZlAz5yiL0lm-c--3" style="edgeStyle=orthogonalEdgeStyle;rounded=0;orthogonalLoop=1;jettySize=auto;html=1;exitX=0.5;exitY=1;exitDx=0;exitDy=0;entryX=0.5;entryY=0;entryDx=0;entryDy=0;strokeColor=#028090;fontColor=#E4FDE1;labelBackgroundColor=#114B5F;" edge="1" parent="WIyWlLk6GJQsqaUBKTNV-1" source="ezc78jZlAz5yiL0lm-c--1" target="ezc78jZlAz5yiL0lm-c--0">
          <mxGeometry relative="1" as="geometry" />
        </mxCell>
        <mxCell id="ezc78jZlAz5yiL0lm-c--1" value="Вхід" style="ellipse;whiteSpace=wrap;html=1;fillColor=#F45B69;strokeColor=#028090;fontColor=#E4FDE1;" vertex="1" parent="WIyWlLk6GJQsqaUBKTNV-1">
          <mxGeometry x="240" y="80" width="120" height="50" as="geometry" />
        </mxCell>
        <mxCell id="ezc78jZlAz5yiL0lm-c--7" style="edgeStyle=orthogonalEdgeStyle;curved=0;rounded=1;sketch=0;orthogonalLoop=1;jettySize=auto;html=1;exitX=0.5;exitY=1;exitDx=0;exitDy=0;entryX=0.5;entryY=0;entryDx=0;entryDy=0;strokeColor=#028090;fillColor=#F45B69;fontColor=#E4FDE1;labelBackgroundColor=#114B5F;" edge="1" parent="WIyWlLk6GJQsqaUBKTNV-1" source="ezc78jZlAz5yiL0lm-c--4" target="ezc78jZlAz5yiL0lm-c--6">
          <mxGeometry relative="1" as="geometry" />
        </mxCell>
        <mxCell id="ezc78jZlAz5yiL0lm-c--4" value="&lt;div class=&quot;OutlineElement Ltr SCXW248350117 BCX0&quot; style=&quot;margin: 0px ; padding: 0px ; overflow: visible ; cursor: text ; clear: both ; position: relative ; direction: ltr ; color: rgb(0 , 0 , 0) ; font-family: &amp;#34;segoe ui&amp;#34; , &amp;#34;segoe ui web&amp;#34; , &amp;#34;arial&amp;#34; , &amp;#34;verdana&amp;#34; , sans-serif ; background-color: rgb(255 , 255 , 255)&quot;&gt;&lt;p class=&quot;Paragraph SCXW248350117 BCX0&quot; lang=&quot;RU-RU&quot; style=&quot;margin: 0px ; padding: 0px ; overflow-wrap: break-word ; vertical-align: baseline ; background-color: transparent&quot;&gt;&lt;span lang=&quot;RU-RU&quot; class=&quot;TextRun SCXW248350117 BCX0&quot; style=&quot;margin: 0px ; padding: 0px ; font-size: 11pt ; line-height: 19.425px ; font-family: &amp;#34;calibri&amp;#34; , &amp;#34;calibri_embeddedfont&amp;#34; , &amp;#34;calibri_msfontservice&amp;#34; , sans-serif&quot;&gt;с =&amp;nbsp;&lt;/span&gt;&lt;span lang=&quot;RU-RU&quot; class=&quot;TextRun SCXW248350117 BCX0&quot; style=&quot;margin: 0px ; padding: 0px ; font-size: 11pt ; line-height: 19.425px ; font-family: &amp;#34;calibri&amp;#34; , &amp;#34;calibri_embeddedfont&amp;#34; , &amp;#34;calibri_msfontservice&amp;#34; , sans-serif&quot;&gt;&lt;span class=&quot;SpellingError SCXW248350117 BCX0&quot; style=&quot;margin: 0px ; padding: 0px ; background-repeat: repeat-x ; background-position: left bottom ; background-image: url(&amp;#34;data:image/gif;base64,R0lGODlhBQAEAJECAP////8AAAAAAAAAACH5BAEAAAIALAAAAAAFAAQAAAIIlGAXCCHrTCgAOw==&amp;#34;) ; border-bottom: 1px solid transparent ; background-color: inherit&quot;&gt;log&lt;/span&gt;&lt;/span&gt;&lt;span lang=&quot;RU-RU&quot; class=&quot;TextRun SCXW248350117 BCX0&quot; style=&quot;margin: 0px ; padding: 0px ; font-size: 11pt ; line-height: 19.425px ; font-family: &amp;#34;calibri&amp;#34; , &amp;#34;calibri_embeddedfont&amp;#34; , &amp;#34;calibri_msfontservice&amp;#34; , sans-serif&quot;&gt;(c)&lt;/span&gt;&lt;span class=&quot;EOP SCXW248350117 BCX0&quot; style=&quot;margin: 0px ; padding: 0px ; font-size: 11pt ; line-height: 19.425px ; font-family: &amp;#34;calibri&amp;#34; , &amp;#34;calibri_embeddedfont&amp;#34; , &amp;#34;calibri_msfontservice&amp;#34; , sans-serif&quot;&gt;&amp;nbsp;&lt;/span&gt;&lt;/p&gt;&lt;/div&gt;&lt;div class=&quot;OutlineElement Ltr SCXW248350117 BCX0&quot; style=&quot;margin: 0px ; padding: 0px ; overflow: visible ; cursor: text ; clear: both ; position: relative ; direction: ltr ; color: rgb(0 , 0 , 0) ; font-family: &amp;#34;segoe ui&amp;#34; , &amp;#34;segoe ui web&amp;#34; , &amp;#34;arial&amp;#34; , &amp;#34;verdana&amp;#34; , sans-serif ; background-color: rgb(255 , 255 , 255)&quot;&gt;&lt;p class=&quot;Paragraph SCXW248350117 BCX0&quot; lang=&quot;RU-RU&quot; style=&quot;margin: 0px ; padding: 0px ; overflow-wrap: break-word ; vertical-align: baseline ; background-color: transparent&quot;&gt;&lt;span lang=&quot;RU-RU&quot; class=&quot;TextRun SCXW248350117 BCX0&quot; style=&quot;margin: 0px ; padding: 0px ; font-size: 11pt ; line-height: 19.425px ; font-family: &amp;#34;calibri&amp;#34; , &amp;#34;calibri_embeddedfont&amp;#34; , &amp;#34;calibri_msfontservice&amp;#34; , sans-serif&quot;&gt;a = a * c + x**2&lt;/span&gt;&lt;span class=&quot;EOP SCXW248350117 BCX0&quot; style=&quot;margin: 0px ; padding: 0px ; font-size: 11pt ; line-height: 19.425px ; font-family: &amp;#34;calibri&amp;#34; , &amp;#34;calibri_embeddedfont&amp;#34; , &amp;#34;calibri_msfontservice&amp;#34; , sans-serif&quot;&gt;&amp;nbsp;&lt;/span&gt;&lt;/p&gt;&lt;/div&gt;&lt;div class=&quot;OutlineElement Ltr SCXW248350117 BCX0&quot; style=&quot;margin: 0px ; padding: 0px ; overflow: visible ; cursor: text ; clear: both ; position: relative ; direction: ltr ; color: rgb(0 , 0 , 0) ; font-family: &amp;#34;segoe ui&amp;#34; , &amp;#34;segoe ui web&amp;#34; , &amp;#34;arial&amp;#34; , &amp;#34;verdana&amp;#34; , sans-serif ; background-color: rgb(255 , 255 , 255)&quot;&gt;&lt;p class=&quot;Paragraph SCXW248350117 BCX0&quot; lang=&quot;RU-RU&quot; style=&quot;margin: 0px ; padding: 0px ; overflow-wrap: break-word ; vertical-align: baseline ; background-color: transparent&quot;&gt;&lt;span lang=&quot;RU-RU&quot; class=&quot;TextRun SCXW248350117 BCX0&quot; style=&quot;margin: 0px ; padding: 0px ; font-size: 11pt ; line-height: 19.425px ; font-family: &amp;#34;calibri&amp;#34; , &amp;#34;calibri_embeddedfont&amp;#34; , &amp;#34;calibri_msfontservice&amp;#34; , sans-serif&quot;&gt;b = x**2 + c&lt;/span&gt;&lt;span class=&quot;EOP SCXW248350117 BCX0&quot; style=&quot;margin: 0px ; padding: 0px ; font-size: 11pt ; line-height: 19.425px ; font-family: &amp;#34;calibri&amp;#34; , &amp;#34;calibri_embeddedfont&amp;#34; , &amp;#34;calibri_msfontservice&amp;#34; , sans-serif&quot;&gt;&amp;nbsp;&lt;/span&gt;&lt;/p&gt;&lt;/div&gt;&lt;div class=&quot;OutlineElement Ltr  BCX0 SCXW248350117&quot; style=&quot;margin: 0px ; padding: 0px ; overflow: visible ; cursor: text ; clear: both ; position: relative ; direction: ltr ; color: rgb(0 , 0 , 0) ; font-family: &amp;#34;segoe ui&amp;#34; , &amp;#34;segoe ui web&amp;#34; , &amp;#34;arial&amp;#34; , &amp;#34;verdana&amp;#34; , sans-serif ; background-color: rgb(255 , 255 , 255)&quot;&gt;&lt;p class=&quot;Paragraph SCXW248350117 BCX0&quot; lang=&quot;RU-RU&quot; style=&quot;margin: 0px ; padding: 0px ; overflow-wrap: break-word ; vertical-align: baseline ; background-color: transparent&quot;&gt;&lt;span lang=&quot;RU-RU&quot; class=&quot;TextRun SCXW248350117 BCX0&quot; style=&quot;margin: 0px ; padding: 0px ; font-size: 11pt ; line-height: 19.425px ; font-family: &amp;#34;calibri&amp;#34; , &amp;#34;calibri_embeddedfont&amp;#34; , &amp;#34;calibri_msfontservice&amp;#34; , sans-serif&quot;&gt;y = (((a*&lt;/span&gt;&lt;span lang=&quot;RU-RU&quot; class=&quot;TextRun SCXW248350117 BCX0&quot; style=&quot;margin: 0px ; padding: 0px ; font-size: 11pt ; line-height: 19.425px ; font-family: &amp;#34;calibri&amp;#34; , &amp;#34;calibri_embeddedfont&amp;#34; , &amp;#34;calibri_msfontservice&amp;#34; , sans-serif&quot;&gt;&lt;span class=&quot;ContextualSpellingAndGrammarError SCXW248350117 BCX0&quot; style=&quot;margin: 0px ; padding: 0px ; background-repeat: repeat-x ; background-position: left bottom ; background-image: url(&amp;#34;data:image/gif;base64,R0lGODlhBQAEAPEDAABVzDNVzDNV/wAAACH5BAUAAAMALAAAAAAFAAQAAAIInC2QchYKQgEAOw==&amp;#34;) ; border-bottom: 1px solid transparent ; background-color: inherit&quot;&gt;x)*&lt;/span&gt;&lt;/span&gt;&lt;span lang=&quot;RU-RU&quot; class=&quot;TextRun SCXW248350117 BCX0&quot; style=&quot;margin: 0px ; padding: 0px ; font-size: 11pt ; line-height: 19.425px ; font-family: &amp;#34;calibri&amp;#34; , &amp;#34;calibri_embeddedfont&amp;#34; , &amp;#34;calibri_msfontservice&amp;#34; , sans-serif&quot;&gt;*&amp;nbsp;&lt;/span&gt;&lt;span lang=&quot;RU-RU&quot; class=&quot;TextRun SCXW248350117 BCX0&quot; style=&quot;margin: 0px ; padding: 0px ; font-size: 11pt ; line-height: 19.425px ; font-family: &amp;#34;calibri&amp;#34; , &amp;#34;calibri_embeddedfont&amp;#34; , &amp;#34;calibri_msfontservice&amp;#34; , sans-serif&quot;&gt;&lt;span class=&quot;ContextualSpellingAndGrammarError SCXW248350117 BCX0&quot; style=&quot;margin: 0px ; padding: 0px ; background-repeat: repeat-x ; background-position: left bottom ; background-image: url(&amp;#34;data:image/gif;base64,R0lGODlhBQAEAPEDAABVzDNVzDNV/wAAACH5BAUAAAMALAAAAAAFAAQAAAIInC2QchYKQgEAOw==&amp;#34;) ; border-bottom: 1px solid transparent ; background-color: inherit&quot;&gt;3)+&lt;/span&gt;&lt;/span&gt;&lt;span lang=&quot;RU-RU&quot; class=&quot;TextRun SCXW248350117 BCX0&quot; style=&quot;margin: 0px ; padding: 0px ; font-size: 11pt ; line-height: 19.425px ; font-family: &amp;#34;calibri&amp;#34; , &amp;#34;calibri_embeddedfont&amp;#34; , &amp;#34;calibri_msfontservice&amp;#34; , sans-serif&quot;&gt;b)/&lt;/span&gt;&lt;span lang=&quot;RU-RU&quot; class=&quot;TextRun SCXW248350117 BCX0&quot; style=&quot;margin: 0px ; padding: 0px ; font-size: 11pt ; line-height: 19.425px ; font-family: &amp;#34;calibri&amp;#34; , &amp;#34;calibri_embeddedfont&amp;#34; , &amp;#34;calibri_msfontservice&amp;#34; , sans-serif&quot;&gt;&lt;span class=&quot;SpellingError SCXW248350117 BCX0&quot; style=&quot;margin: 0px ; padding: 0px ; background-repeat: repeat-x ; background-position: left bottom ; background-image: url(&amp;#34;data:image/gif;base64,R0lGODlhBQAEAJECAP////8AAAAAAAAAACH5BAEAAAIALAAAAAAFAAQAAAIIlGAXCCHrTCgAOw==&amp;#34;) ; border-bottom: 1px solid transparent ; background-color: inherit&quot;&gt;cos&lt;/span&gt;&lt;/span&gt;&lt;span lang=&quot;RU-RU&quot; class=&quot;TextRun SCXW248350117 BCX0&quot; style=&quot;margin: 0px ; padding: 0px ; font-size: 11pt ; line-height: 19.425px ; font-family: &amp;#34;calibri&amp;#34; , &amp;#34;calibri_embeddedfont&amp;#34; , &amp;#34;calibri_msfontservice&amp;#34; , sans-serif&quot;&gt;(x)** 3&lt;/span&gt;&lt;span class=&quot;EOP SCXW248350117 BCX0&quot; style=&quot;margin: 0px ; padding: 0px ; font-size: 11pt ; line-height: 19.425px ; font-family: &amp;#34;calibri&amp;#34; , &amp;#34;calibri_embeddedfont&amp;#34; , &amp;#34;calibri_msfontservice&amp;#34; , sans-serif&quot;&gt;&amp;nbsp;&lt;/span&gt;&lt;/p&gt;&lt;/div&gt;" style="rounded=0;whiteSpace=wrap;html=1;sketch=0;strokeColor=#028090;fillColor=#F45B69;fontColor=#E4FDE1;" vertex="1" parent="WIyWlLk6GJQsqaUBKTNV-1">
          <mxGeometry x="180" y="240" width="240" height="90" as="geometry" />
        </mxCell>
        <mxCell id="ezc78jZlAz5yiL0lm-c--9" style="edgeStyle=orthogonalEdgeStyle;curved=0;rounded=1;sketch=0;orthogonalLoop=1;jettySize=auto;html=1;exitX=0.5;exitY=1;exitDx=0;exitDy=0;strokeColor=#028090;fillColor=#F45B69;fontColor=#E4FDE1;labelBackgroundColor=#114B5F;" edge="1" parent="WIyWlLk6GJQsqaUBKTNV-1" source="ezc78jZlAz5yiL0lm-c--6" target="ezc78jZlAz5yiL0lm-c--8">
          <mxGeometry relative="1" as="geometry" />
        </mxCell>
        <mxCell id="ezc78jZlAz5yiL0lm-c--6" value="&lt;div class=&quot;OutlineElement Ltr SCXW37892440 BCX0&quot; style=&quot;margin: 0px ; padding: 0px ; overflow: visible ; cursor: text ; clear: both ; position: relative ; direction: ltr ; color: rgb(0 , 0 , 0) ; font-family: &amp;#34;segoe ui&amp;#34; , &amp;#34;segoe ui web&amp;#34; , &amp;#34;arial&amp;#34; , &amp;#34;verdana&amp;#34; , sans-serif ; font-size: 12px ; font-style: normal ; font-weight: 400 ; letter-spacing: normal ; text-indent: 0px ; text-transform: none ; word-spacing: 0px ; background-color: rgb(255 , 255 , 255)&quot;&gt;&lt;p class=&quot;Paragraph SCXW37892440 BCX0&quot; lang=&quot;RU-RU&quot; style=&quot;margin: 0px ; padding: 0px ; overflow-wrap: break-word ; font-weight: normal ; font-style: normal ; vertical-align: baseline ; background-color: transparent ; text-align: left ; text-indent: 0px&quot;&gt;&lt;span lang=&quot;RU-RU&quot; class=&quot;TextRun SCXW248901945 BCX0&quot; style=&quot;margin: 0px ; padding: 0px ; font-size: 11pt ; line-height: 19.425px ; font-family: &amp;#34;calibri&amp;#34; , &amp;#34;calibri_embeddedfont&amp;#34; , &amp;#34;calibri_msfontservice&amp;#34; , sans-serif&quot;&gt;&lt;span class=&quot;SpellingError SCXW248901945 BCX0&quot; style=&quot;margin: 0px ; padding: 0px ; background-repeat: repeat-x ; background-position: left bottom ; background-image: url(&amp;#34;data:image/gif;base64,R0lGODlhBQAEAJECAP////8AAAAAAAAAACH5BAEAAAIALAAAAAAFAAQAAAIIlGAXCCHrTCgAOw==&amp;#34;) ; border-bottom: 1px solid transparent ; background-color: inherit&quot;&gt;print&lt;/span&gt;&lt;span class=&quot;NormalTextRun SCXW248901945 BCX0&quot; style=&quot;margin: 0px ; padding: 0px ; background-color: inherit&quot;&gt;(y)&lt;/span&gt;&lt;/span&gt;&lt;span class=&quot;EOP SCXW248901945 BCX0&quot; style=&quot;margin: 0px ; padding: 0px ; font-size: 11pt ; line-height: 19.425px ; font-family: &amp;#34;calibri&amp;#34; , &amp;#34;calibri_embeddedfont&amp;#34; , &amp;#34;calibri_msfontservice&amp;#34; , sans-serif&quot;&gt;&amp;nbsp;&lt;/span&gt;&lt;br&gt;&lt;/p&gt;&lt;/div&gt;" style="shape=parallelogram;perimeter=parallelogramPerimeter;whiteSpace=wrap;html=1;fixedSize=1;fillColor=#F45B69;strokeColor=#028090;fontColor=#E4FDE1;" vertex="1" parent="WIyWlLk6GJQsqaUBKTNV-1">
          <mxGeometry x="210" y="360" width="180" height="70" as="geometry" />
        </mxCell>
        <mxCell id="ezc78jZlAz5yiL0lm-c--8" value="Вихід" style="ellipse;whiteSpace=wrap;html=1;fillColor=#F45B69;strokeColor=#028090;fontColor=#E4FDE1;" vertex="1" parent="WIyWlLk6GJQsqaUBKTNV-1">
          <mxGeometry x="240" y="450" width="120" height="50" as="geometry" />
        </mxCell>
      </root>
    </mxGraphModel>
  </diagram>
</mxfile>
